<svg xmlns="http://www.w3.org/2000/svg" xmlns:xlink="http://www.w3.org/1999/xlink" width="16" height="18" viewBox="0 0 16 18">
    <defs>
        <path id="ru0gv08joa" d="M0 15.939L12.504 15.939 12.504 0 0 0z"/>
    </defs>
    <g fill="none" fill-rule="evenodd">
        <g>
            <g>
                <g>
                    <g transform="translate(-517.000000, -997.000000) translate(460.000000, 940.000000) translate(57.000000, 57.000000) translate(2.000000, 0.000000)">
                        <path fill="#000" d="M6.246.5h.008c1.673 0 3.04 1.357 3.051 3.03.005.807-.308 1.57-.881 2.147-.576.58-1.342.9-2.156.902h-.005c-.812 0-1.576-.315-2.15-.888-.577-.573-.894-1.337-.895-2.15C3.216 1.87 4.574.506 6.246.5m.017 6.579h.006c.948-.002 1.84-.374 2.51-1.05.667-.672 1.032-1.56 1.026-2.502C9.793 1.58 8.201 0 6.254 0h-.01C4.297.005 2.715 1.594 2.718 3.542c0 .947.37 1.836 1.042 2.504.669.666 1.558 1.033 2.503 1.033"/>
                        <mask id="ihm5k3z7ab" fill="#fff">
                            <use xlink:href="#ru0gv08joa"/>
                        </mask>
                        <path fill="#000" d="M.5 15.44h11.504V8.611H.5v6.827zm-.5.5h12.504V8.111H0v7.827z" mask="url(#ihm5k3z7ab)"/>
                    </g>
                </g>
            </g>
        </g>
    </g>
</svg>